<mxfile host="app.diagrams.net" agent="Mozilla/5.0 (X11; Ubuntu; Linux x86_64; rv:134.0) Gecko/20100101 Firefox/134.0" version="26.0.10">
  <diagram name="Page-1" id="5d7acffa-a066-3a61-03fe-96351882024d">
    <mxGraphModel dx="1434" dy="801" grid="1" gridSize="10" guides="1" tooltips="1" connect="1" arrows="1" fold="1" page="1" pageScale="1" pageWidth="1100" pageHeight="850" background="#ffffff" math="0" shadow="0">
      <root>
        <mxCell id="0" />
        <mxCell id="1" parent="0" />
        <mxCell id="QfacBQKaahASg-ri2pV1-2" value="Local machine" style="rounded=0;whiteSpace=wrap;html=1;labelPosition=center;verticalLabelPosition=middle;align=center;verticalAlign=top;fontStyle=1;fontSize=20;" parent="1" vertex="1">
          <mxGeometry x="20" y="70" width="520" height="600" as="geometry" />
        </mxCell>
        <mxCell id="QfacBQKaahASg-ri2pV1-7" value="IPFS network" style="ellipse;shape=cloud;whiteSpace=wrap;html=1;fontSize=22;verticalAlign=top;align=center;opacity=70;dashed=1;" parent="1" vertex="1">
          <mxGeometry x="190" width="1230" height="790" as="geometry" />
        </mxCell>
        <mxCell id="QfacBQKaahASg-ri2pV1-22" value="Local File System" style="shape=ext;double=1;rounded=0;whiteSpace=wrap;html=1;fontSize=20;verticalAlign=top;" parent="1" vertex="1">
          <mxGeometry x="40" y="220" width="210" height="310" as="geometry" />
        </mxCell>
        <mxCell id="QfacBQKaahASg-ri2pV1-23" value="helloworld.txt" style="swimlane;html=1;fontStyle=0;childLayout=stackLayout;horizontal=1;startSize=26;fillColor=#e0e0e0;horizontalStack=0;resizeParent=1;resizeLast=0;collapsible=1;marginBottom=0;swimlaneFillColor=#ffffff;align=center;rounded=1;shadow=0;comic=0;labelBackgroundColor=none;strokeWidth=1;fontFamily=Verdana;fontSize=12" parent="1" vertex="1">
          <mxGeometry x="65" y="330" width="160" height="100" as="geometry" />
        </mxCell>
        <mxCell id="QfacBQKaahASg-ri2pV1-24" value="Hello, IPFS!" style="text;html=1;strokeColor=none;fillColor=none;spacingLeft=4;spacingRight=4;whiteSpace=wrap;overflow=hidden;rotatable=0;points=[[0,0.5],[1,0.5]];portConstraint=eastwest;verticalAlign=middle;align=center;fontStyle=1;fontSize=22;" parent="QfacBQKaahASg-ri2pV1-23" vertex="1">
          <mxGeometry y="26" width="160" height="74" as="geometry" />
        </mxCell>
        <mxCell id="QfacBQKaahASg-ri2pV1-25" value="IPFS data" style="shape=ext;double=1;rounded=0;whiteSpace=wrap;html=1;fontSize=20;verticalAlign=top;" parent="1" vertex="1">
          <mxGeometry x="370" y="220" width="320" height="310" as="geometry" />
        </mxCell>
        <mxCell id="QfacBQKaahASg-ri2pV1-26" value="Pinned Files" style="shape=table;startSize=30;container=1;collapsible=0;childLayout=tableLayout;strokeColor=default;fontSize=16;align=center;fontStyle=1" parent="1" vertex="1">
          <mxGeometry x="410" y="290" width="240" height="150" as="geometry" />
        </mxCell>
        <mxCell id="QfacBQKaahASg-ri2pV1-27" value="" style="shape=tableRow;horizontal=0;startSize=0;swimlaneHead=0;swimlaneBody=0;strokeColor=inherit;top=0;left=0;bottom=0;right=0;collapsible=0;dropTarget=0;fillColor=none;points=[[0,0.5],[1,0.5]];portConstraint=eastwest;fontSize=16;" parent="QfacBQKaahASg-ri2pV1-26" vertex="1">
          <mxGeometry y="30" width="240" height="40" as="geometry" />
        </mxCell>
        <mxCell id="QfacBQKaahASg-ri2pV1-28" value="bnm321" style="shape=partialRectangle;html=1;whiteSpace=wrap;connectable=0;strokeColor=inherit;overflow=hidden;fillColor=none;top=0;left=0;bottom=0;right=0;pointerEvents=1;fontSize=16;" parent="QfacBQKaahASg-ri2pV1-27" vertex="1">
          <mxGeometry width="84" height="40" as="geometry">
            <mxRectangle width="84" height="40" as="alternateBounds" />
          </mxGeometry>
        </mxCell>
        <mxCell id="QfacBQKaahASg-ri2pV1-29" value="&lt;div align=&quot;center&quot;&gt;helloworld.txt&lt;/div&gt;" style="shape=partialRectangle;html=1;whiteSpace=wrap;connectable=0;strokeColor=inherit;overflow=hidden;fillColor=none;top=0;left=0;bottom=0;right=0;pointerEvents=1;fontSize=16;align=center;" parent="QfacBQKaahASg-ri2pV1-27" vertex="1">
          <mxGeometry x="84" width="156" height="40" as="geometry">
            <mxRectangle width="156" height="40" as="alternateBounds" />
          </mxGeometry>
        </mxCell>
        <mxCell id="QfacBQKaahASg-ri2pV1-31" value="" style="shape=tableRow;horizontal=0;startSize=0;swimlaneHead=0;swimlaneBody=0;strokeColor=inherit;top=0;left=0;bottom=0;right=0;collapsible=0;dropTarget=0;fillColor=none;points=[[0,0.5],[1,0.5]];portConstraint=eastwest;fontSize=16;" parent="QfacBQKaahASg-ri2pV1-26" vertex="1">
          <mxGeometry y="70" width="240" height="40" as="geometry" />
        </mxCell>
        <mxCell id="QfacBQKaahASg-ri2pV1-32" value="" style="shape=partialRectangle;html=1;whiteSpace=wrap;connectable=0;strokeColor=inherit;overflow=hidden;fillColor=none;top=0;left=0;bottom=0;right=0;pointerEvents=1;fontSize=16;" parent="QfacBQKaahASg-ri2pV1-31" vertex="1">
          <mxGeometry width="84" height="40" as="geometry">
            <mxRectangle width="84" height="40" as="alternateBounds" />
          </mxGeometry>
        </mxCell>
        <mxCell id="QfacBQKaahASg-ri2pV1-33" value="" style="shape=partialRectangle;html=1;whiteSpace=wrap;connectable=0;strokeColor=inherit;overflow=hidden;fillColor=none;top=0;left=0;bottom=0;right=0;pointerEvents=1;fontSize=16;" parent="QfacBQKaahASg-ri2pV1-31" vertex="1">
          <mxGeometry x="84" width="156" height="40" as="geometry">
            <mxRectangle width="156" height="40" as="alternateBounds" />
          </mxGeometry>
        </mxCell>
        <mxCell id="QfacBQKaahASg-ri2pV1-35" value="" style="shape=tableRow;horizontal=0;startSize=0;swimlaneHead=0;swimlaneBody=0;strokeColor=inherit;top=0;left=0;bottom=0;right=0;collapsible=0;dropTarget=0;fillColor=none;points=[[0,0.5],[1,0.5]];portConstraint=eastwest;fontSize=16;" parent="QfacBQKaahASg-ri2pV1-26" vertex="1">
          <mxGeometry y="110" width="240" height="40" as="geometry" />
        </mxCell>
        <mxCell id="QfacBQKaahASg-ri2pV1-36" value="" style="shape=partialRectangle;html=1;whiteSpace=wrap;connectable=0;strokeColor=inherit;overflow=hidden;fillColor=none;top=0;left=0;bottom=0;right=0;pointerEvents=1;fontSize=16;" parent="QfacBQKaahASg-ri2pV1-35" vertex="1">
          <mxGeometry width="84" height="40" as="geometry">
            <mxRectangle width="84" height="40" as="alternateBounds" />
          </mxGeometry>
        </mxCell>
        <mxCell id="QfacBQKaahASg-ri2pV1-37" value="" style="shape=partialRectangle;html=1;whiteSpace=wrap;connectable=0;strokeColor=inherit;overflow=hidden;fillColor=none;top=0;left=0;bottom=0;right=0;pointerEvents=1;fontSize=16;" parent="QfacBQKaahASg-ri2pV1-35" vertex="1">
          <mxGeometry x="84" width="156" height="40" as="geometry">
            <mxRectangle width="156" height="40" as="alternateBounds" />
          </mxGeometry>
        </mxCell>
        <mxCell id="QfacBQKaahASg-ri2pV1-39" value="" style="endArrow=classic;html=1;rounded=0;exitX=1;exitY=0.5;exitDx=0;exitDy=0;entryX=0;entryY=0.5;entryDx=0;entryDy=0;" parent="1" source="QfacBQKaahASg-ri2pV1-24" target="QfacBQKaahASg-ri2pV1-27" edge="1">
          <mxGeometry width="50" height="50" relative="1" as="geometry">
            <mxPoint x="690" y="410" as="sourcePoint" />
            <mxPoint x="740" y="360" as="targetPoint" />
          </mxGeometry>
        </mxCell>
      </root>
    </mxGraphModel>
  </diagram>
</mxfile>
